<svg id="Calque_1" data-name="Calque 1" xmlns="http://www.w3.org/2000/svg" viewBox="0 0 471.87 180.5"><defs><style>.cls-1{font-size:70px;fill:#646463;font-family:BebasNeue-Regular, Bebas Neue;letter-spacing:0.02em;}.cls-2{letter-spacing:0.05em;}.cls-3{letter-spacing:0.05em;}.cls-4{fill:#fff;}</style></defs><title>logo</title><text class="cls-1" transform="translate(16.87 59.5)">P<tspan class="cls-2" x="28.07" y="0">A</tspan><tspan class="cls-3" x="59.5" y="0">UL</tspan></text><path class="cls-4" d="M183.12,291a.47.47,0,0,0-.37.23c-.06.11-.13.23-.21.35a.75.75,0,0,0,0,.17c0,.08,0,.14,0,.17a1,1,0,0,0-.35.3l-.23.46a.17.17,0,0,1-.11.06s-.08,0-.12.11-.07.17-.2.26a1.21,1.21,0,0,0-.32.32,3.94,3.94,0,0,0-.5.61,3.12,3.12,0,0,1-.49.61,1.33,1.33,0,0,1-.26.21,1,1,0,0,0-.26.2.77.77,0,0,0-.23.32,2.21,2.21,0,0,1-.18.32s.12,0,.23,0,.2.06.24,0,0-.1-.06-.2-.1-.14-.06-.14a.46.46,0,0,1,.38-.06.77.77,0,0,0,.49-.06,1.1,1.1,0,0,1-.29.81,2.75,2.75,0,0,0-.2.38c-.06.14-.13.32-.21.55a.27.27,0,0,1-.23.15c-.11,0-.17.07-.17.14s0,.06.11.06.1,0,.06.12a.26.26,0,0,1-.17.14.27.27,0,0,0-.18.15.19.19,0,0,0,0,.17.21.21,0,0,1,0,.17s-.1,0-.18,0a.58.58,0,0,0-.17-.05.37.37,0,0,0,0,.26q0,.13-.15.09a.61.61,0,0,1-.2.4c-.1.08-.12.25-.09.52a11.84,11.84,0,0,0-1.48,1.25,7.32,7.32,0,0,1-1.65,1.25,2.52,2.52,0,0,0-.46.38,1,1,0,0,1-.58.32.29.29,0,0,0-.38.2.65.65,0,0,1-.38.38.45.45,0,0,1-.26,0,.29.29,0,0,0-.26.09s0,.07,0,.09,0,0-.15,0a.49.49,0,0,0-.17.06.41.41,0,0,1-.17.05.38.38,0,0,0-.09.18c0,.08-.05.11-.09.11a.18.18,0,0,1-.2,0,.14.14,0,0,0-.15,0s0,.06-.11.18a.17.17,0,0,0-.06.11.18.18,0,0,1-.2,0,.14.14,0,0,0-.15,0,.24.24,0,0,0-.2.12.52.52,0,0,1-.2.17c-.39.2-.82.39-1.28.58s-.91.39-1.34.59c0,0-.09,0-.17,0s-.14,0-.17,0,0,.05-.12.17a.17.17,0,0,0-.06.12.49.49,0,0,1-.38.05.58.58,0,0,0-.32,0,.67.67,0,0,0-.2.18c-.06.07-.11.11-.14.11a.61.61,0,0,1-.38.09.6.6,0,0,0-.32,0,.49.49,0,0,1-.17.06.46.46,0,0,0-.18.06,3.42,3.42,0,0,1-1.16.34l-1.39.24-1,.11a5.16,5.16,0,0,1-1.33-.06,3.7,3.7,0,0,1-1.6-.63,4.31,4.31,0,0,1-1.07-1.28,1.69,1.69,0,0,1-1.1-.47c-.2.12-.16.28.11.47a1.05,1.05,0,0,1,.47.58,1.93,1.93,0,0,0,.49.06c.17,0,.2.11.09.35a.72.72,0,0,0-.53-.15,1,1,0,0,1-.58-.14.2.2,0,0,1-.11-.18.22.22,0,0,0-.06-.17.51.51,0,0,0-.29-.15.41.41,0,0,1-.29-.26s0-.1,0-.17,0-.12,0-.12a1.28,1.28,0,0,0-.26-.2.44.44,0,0,1-.2-.21.68.68,0,0,1,.05-.17c0-.08,0-.13,0-.17-.19-.16-.22-.23-.08-.21s.18-.12.14-.43c0-.08-.06-.15-.2-.21s-.17-.16-.09-.31,0-.29.15-.29a1.11,1.11,0,0,1,.37.05c.08-.27,0-.43-.14-.49s-.2-.24-.09-.55a.5.5,0,0,0,.29-.32,2.56,2.56,0,0,1,.18-.44c.07-.07.13-.06.17,0s.08.15.12.15a.24.24,0,0,0,.17-.06s0-.06,0-.06a.59.59,0,0,1,.35.29c0,.12.19.22.46.29l.15,0a.12.12,0,0,1,.14,0c.08,0,.1.13.06.26s0,.23.06.26.18,0,.32-.08a.3.3,0,0,1,.38,0,1,1,0,0,1,.14.41.33.33,0,0,0,.26.29,5.46,5.46,0,0,0,1.86-.09,12.45,12.45,0,0,1,1.57-.32.59.59,0,0,0-.47-.29.55.55,0,0,1-.46-.35c.07-.23.06-.39,0-.46a.78.78,0,0,1-.2-.53,12.57,12.57,0,0,1-.06-2.78c.07-1.05.18-2.12.32-3.22s.28-2.21.43-3.31a30.23,30.23,0,0,0,.29-3,1.38,1.38,0,0,1,0-.26,1.22,1.22,0,0,0,0-.26c0-.39,0-.52.15-.41s.08.31,0,.58-.07.61-.09.9-.05.59-.09.9c.31-.07.45-.24.41-.49a1,1,0,0,1,.06-.61h0a.11.11,0,0,0,.12-.12s0-.05-.09-.05-.08,0-.08-.12a1,1,0,0,1,.14-.23.48.48,0,0,0,.09-.29,11.05,11.05,0,0,0,.17-1.31,4,4,0,0,1,.29-1.25c0-.07,0-.11.12-.11h.06a.24.24,0,0,0-.06-.18l-.06-.05a.28.28,0,0,1,.17-.15.28.28,0,0,0,.18-.14q.06-.12-.06-.12t-.12-.06.09-.09c.06,0,.09,0,.09,0,.27-.7.52-1.4.75-2.09.24,0,.28.06.15.32s-.17.43-.09.55a.14.14,0,0,1,0,.23c-.08.08,0,.21.12.41.07-.08.11-.13.11-.15a2.13,2.13,0,0,1,.12-.32,6.17,6.17,0,0,0,.17-1.16,5.31,5.31,0,0,1,.24-1.28c.07-.15.1-.24.08-.26a1.93,1.93,0,0,1,0-.55,2.72,2.72,0,0,1,.06-.64.52.52,0,0,1,.09-.37.68.68,0,0,0,.14-.27s0,0-.08,0a.18.18,0,0,1-.09-.17h.06c.07,0,.11,0,.11-.12a18.87,18.87,0,0,0,.35-2.06c.08-.67.17-1.4.29-2.17a5.77,5.77,0,0,0-.87.4c-.12.08-.24.18-.38.29a2.72,2.72,0,0,1-.37.29,2.34,2.34,0,0,0-.35.29,1.79,1.79,0,0,1-.35.29l-.41.29a.61.61,0,0,1-.52.12,1.72,1.72,0,0,1-.72.81,6.87,6.87,0,0,0-.9.64,1.52,1.52,0,0,0-.38.38,2,2,0,0,1-.38.38l-.43.32a2.89,2.89,0,0,1-.5.26,2.74,2.74,0,0,0-.58-.21c-.23-.05-.23-.18,0-.37a.52.52,0,0,0-.38.2c-.05.1-.22.11-.49,0a1,1,0,0,1-.11-.64.36.36,0,0,0-.15-.17.39.39,0,0,1-.14-.24c0-.19,0-.32.08-.37a.29.29,0,0,0,.15-.26q0,.11-.06,0a.7.7,0,0,0-.12-.18.37.37,0,0,1,.09-.23,2.22,2.22,0,0,0,.15-.23l.34-.38c.16-.17.29-.34.41-.49a6.13,6.13,0,0,1,.93-.76q.57-.4.93-.69c.11,0,.14.07.08.11a.54.54,0,0,0-.14.18,2.25,2.25,0,0,0,.49-.27,4.64,4.64,0,0,1,.44-.26,7.3,7.3,0,0,1,.72-.52,7.46,7.46,0,0,1,.9-.46l.29-.15a2.46,2.46,0,0,1,.41-.09c.08,0,.11-.06.09-.08s0-.05.08-.09l.87-.38a8.81,8.81,0,0,0,.87-.43c.27-.12.58-.23.93-.35a.85.85,0,0,0,.58-.81,1.51,1.51,0,0,1,.21.23.41.41,0,0,0,.26.17,2.81,2.81,0,0,1,1-.58,3.23,3.23,0,0,0,1.05-.52c.11.08.14.14.08.17a.22.22,0,0,0-.08.18c0-.08.16-.13.37-.15s.21-.06,0-.14c.07-.08.2-.09.37,0a.93.93,0,0,0,.61,0q.12-.06.12-.12s0-.05.11-.05l.12.05a.41.41,0,0,0,.2-.17.26.26,0,0,1,.21-.12.36.36,0,0,1,.23,0c.08,0,.11,0,.11-.15.08,0,.12.16.12.35a34,34,0,0,1,5.22-1.74,1,1,0,0,0,.41-.41,1.31,1.31,0,0,0,.78-.23,1.67,1.67,0,0,1,.79-.29.25.25,0,0,0-.26-.18,1.7,1.7,0,0,1-.44-.05c0,.07-.12.11-.35.11l-.2.09a.88.88,0,0,1-.26,0,.65.65,0,0,0-.26.06.73.73,0,0,1-.26.06,1,1,0,0,0-.24,0l-.29.09a1.51,1.51,0,0,0-.52.15,3.49,3.49,0,0,1-.7.2,1,1,0,0,1-.4,0,1.34,1.34,0,0,0-.47,0,7.93,7.93,0,0,0-1,.32,8.41,8.41,0,0,1-1,.32.49.49,0,0,1-.23-.06q-.12-.06-.12,0s0,0,0,.08,0,.09,0,.09l-.15,0-.14,0a.1.1,0,0,0,0,.12s0,.06,0,.06l-.15,0a.12.12,0,0,0-.14,0c-.08.08-.14.1-.18.08a.31.31,0,0,0-.17,0,.46.46,0,0,0-.29.09l-.23.15a.26.26,0,0,1-.21,0,.1.1,0,0,0-.14,0v.17a.32.32,0,0,1-.2-.06q-.09-.06-.15,0v.18a.34.34,0,0,1-.2-.06q-.09-.06-.15,0V269a.64.64,0,0,1-.2,0l-.15,0a.23.23,0,0,1-.23.09.51.51,0,0,0-.29,0,.18.18,0,0,0-.11.17.11.11,0,0,1-.12.12.23.23,0,0,1-.23.09.31.31,0,0,0-.23,0c-.08,0-.11.07-.09.11s0,.06-.15.06h-.11a1.09,1.09,0,0,0-.32.17,2.05,2.05,0,0,0-.26.24s-.1,0-.18,0a.38.38,0,0,0-.17-.06.82.82,0,0,1-.35.29l-.23.23a1.73,1.73,0,0,1-.29.23.22.22,0,0,1-.26.06.22.22,0,0,0-.26.06c-.08,0-.12.09-.12.14s0,.11-.12.15h-.17a.17.17,0,0,1-.12-.06,3.24,3.24,0,0,1-.72.55,4.29,4.29,0,0,0-.78.61c-.24-.07-.25-.13,0-.17s.3-.14.26-.29c.65-.43,1.29-.87,1.91-1.34a9.89,9.89,0,0,1,2-1.16c-.07-.19-.16-.23-.26-.11a.87.87,0,0,1-.26.23l-.7.23c.08,0,.09-.09,0-.14s-.1-.07-.14,0a1.6,1.6,0,0,1-.44.29,1.28,1.28,0,0,0-.49.4c-.12,0-.14-.09-.06-.17a.35.35,0,0,1,.23-.12,5.28,5.28,0,0,1,1.54-1l1.89-.87c.58-.27,1.18-.52,1.8-.76l1.85-.69c.66-.2,1.33-.38,2-.55s1.34-.34,2-.5a1,1,0,0,0,.29-.14.69.69,0,0,1,.41-.09,5.1,5.1,0,0,1,1-.15,7.65,7.65,0,0,0,1.19-.14l.29,0a3.36,3.36,0,0,1,.52,0,.6.6,0,0,0,.32-.06.46.46,0,0,1,.21,0,12.13,12.13,0,0,1,2.67.29v.11s.05.06.17.06a.17.17,0,0,0,.17-.12c.08,0,.11,0,.09.09a.38.38,0,0,0,0,.26.81.81,0,0,0,.46.12c.2,0,.29.13.29.4a.6.6,0,0,0,.35.15.63.63,0,0,1,.35.14l-.06.12a3,3,0,0,0,.58.32,1.35,1.35,0,0,1,.53.49l.23.26a2,2,0,0,0,.23.27.49.49,0,0,1-.06.17c0,.08,0,.14,0,.17a1.27,1.27,0,0,0,.29.21.31.31,0,0,1,.18.32.67.67,0,0,0,.11.43c.08.1.06.28-.06.55s-.17.16-.17.12a1.07,1.07,0,0,0,0,.43.52.52,0,0,1-.09.38s0,.06,0,.06-.08,0-.12.12v.17a.35.35,0,0,0-.12.26,1,1,0,0,1-.11.38,2.06,2.06,0,0,0-.32.61c-.14.33-.24.59-.32.78a.1.1,0,0,1-.12,0s-.07,0-.11.09a.48.48,0,0,1-.18.34.57.57,0,0,1-.2.15.27.27,0,0,0-.15.15.4.4,0,0,0-.11.29.59.59,0,0,1-.12.34.27.27,0,0,1-.2.06.25.25,0,0,0-.2.06.39.39,0,0,0,0,.14.19.19,0,0,1,0,.15.41.41,0,0,1-.21.09c-.09,0-.14,0-.14.08a.14.14,0,0,0,0,.15.12.12,0,0,1,0,.14.24.24,0,0,1-.17.06.24.24,0,0,0-.18.06.18.18,0,0,0,0,.2q.06.09,0,.15a.28.28,0,0,1-.2.06c-.1,0-.15,0-.15.05s0,.1,0,.18a.19.19,0,0,1,0,.17.37.37,0,0,1-.27.12.37.37,0,0,0-.26.12s0,.09,0,.17a.19.19,0,0,1,0,.17.77.77,0,0,1-.32.18.8.8,0,0,0-.38.23.17.17,0,0,0,0,.17.18.18,0,0,1,0,.18,5,5,0,0,0-.7.58,5.64,5.64,0,0,1-.63.55,5.55,5.55,0,0,0-.7.61,2.78,2.78,0,0,1-.41.32,2.57,2.57,0,0,0-.46.38.34.34,0,0,0-.12.26.4.4,0,0,1-.11.26,12.09,12.09,0,0,1-1.89,1.36,5.46,5.46,0,0,0-1.6,1.37c0,.19.15.27.32.23a1.06,1.06,0,0,1,.5,0v.11s0,.06.11.06a1.75,1.75,0,0,0,.53.06.73.73,0,0,0,.52.41.93.93,0,0,1,.58.4,5,5,0,0,0,1.33.06,1.42,1.42,0,0,1,1.11.35.49.49,0,0,0,.26.11.7.7,0,0,1,.26.12l.26.29c.13.16.24.23.32.23s.31.29.58.76a5,5,0,0,1,.46.69.45.45,0,0,0,.15.18.4.4,0,0,1,.14.17.62.62,0,0,1,0,.18c0,.07,0,.13,0,.17a1,1,0,0,1,.29.52.12.12,0,0,1,0,.09.12.12,0,0,0,0,.09v.11c.11,0,.17,0,.17.06a4.94,4.94,0,0,1-.38,2.41,13.55,13.55,0,0,1-1.13,2.18c-.19,0-.19-.16,0-.35s.29-.35.29-.47,0,0-.11,0-.1,0-.06-.12h.06c.07,0,.11,0,.11-.12a1.55,1.55,0,0,1,.18-.46A1.77,1.77,0,0,0,183.12,291Zm-20,10.85q-.18-.06-.18-.18a.18.18,0,0,0-.11-.17.31.31,0,0,0,0,.44C163,302.08,163.08,302.05,163.16,301.86Zm15.9-9.17a.49.49,0,0,0-.06.23.33.33,0,0,1-.11.23.39.39,0,0,1-.18.18l-.23.11a3.58,3.58,0,0,1-.41.82,1.09,1.09,0,0,1-.08.14.69.69,0,0,0-.09.15.82.82,0,0,1-.2.14.59.59,0,0,0-.21.15l-.55.69a5.76,5.76,0,0,1-.55.64,1.92,1.92,0,0,1-.52.47,1.83,1.83,0,0,0-.41.29.3.3,0,0,0-.11.23.33.33,0,0,1-.12.23.83.83,0,0,1-.35.2,1,1,0,0,0-.35.21,1.71,1.71,0,0,0-.29.4.78.78,0,0,1-.29.35,3.72,3.72,0,0,1-.75.49,2.77,2.77,0,0,0-.7.5,8.05,8.05,0,0,0-.69.64c-.24.23-.45.42-.64.58a.39.39,0,0,1-.26,0,.28.28,0,0,0-.26.08s-.07,0-.09.12a.34.34,0,0,1-.09.17s-.1,0-.17,0a.46.46,0,0,0-.18-.06.89.89,0,0,0-.17.24,1.12,1.12,0,0,1-.18.23.18.18,0,0,1-.2,0,.3.3,0,0,0-.14-.06.83.83,0,0,0-.12.17.7.7,0,0,1-.12.18.37.37,0,0,1-.26,0,.29.29,0,0,0-.26.08.37.37,0,0,0-.17.21.39.39,0,0,1-.18.2s-.08,0-.14,0a.18.18,0,0,0-.2,0s-.07,0-.09.12a.39.39,0,0,1-.09.17c-.08,0-.13,0-.17,0a.24.24,0,0,0-.18-.06.3.3,0,0,0-.08.18.34.34,0,0,1-.09.17.58.58,0,0,1-.26.06.53.53,0,0,0-.26.06l-.24.11a.38.38,0,0,1-.17.06.38.38,0,0,0-.17.06c-.16.08-.31.16-.47.26a.77.77,0,0,1-.4.15.72.72,0,0,0-.38.11l-.32.18a.37.37,0,0,0-.15.05.32.32,0,0,1-.2.06c-.08,0-.11,0-.11.06a.05.05,0,0,1-.06.06,1.37,1.37,0,0,1-.64.09.62.62,0,0,0-.58.26c.46-.08.89-.14,1.28-.18a9.37,9.37,0,0,0,1.1-.17.1.1,0,0,0,0-.12s0-.06,0-.06,0,0,.11,0,.14,0,.18,0,0,0,0-.05,0-.06,0-.06,0,0,.12,0,.14,0,.17,0a.65.65,0,0,0,.24-.12l.17-.17s.09,0,.15,0a.24.24,0,0,0,.14.06s.05,0,0-.09,0-.09,0-.09a.1.1,0,0,1,.14,0,.29.29,0,0,0,.15.06.1.1,0,0,0,0-.12s0-.05,0-.05.08,0,.14,0,.11,0,.15,0,0,0,0-.06,0-.06,0-.06.08,0,.14,0,.11,0,.15,0a1,1,0,0,0,.34-.26.5.5,0,0,1,.41-.15c.08,0,.11,0,.09,0s0-.06.08-.06a1.62,1.62,0,0,1,.38-.15,1.08,1.08,0,0,0,.32-.14l.29-.21a1.37,1.37,0,0,0,.23-.2H170a.71.71,0,0,0,.29-.09,1,1,0,0,0,.29-.2,1.73,1.73,0,0,0,.55-.43,1.72,1.72,0,0,1,.49-.44.66.66,0,0,1,.38-.12.67.67,0,0,0,.38-.11,2.6,2.6,0,0,0,.55-.47c.17-.19.35-.38.55-.58s.38-.29.55-.4a3.64,3.64,0,0,0,.55-.47,3.4,3.4,0,0,0,.52-.4,1.11,1.11,0,0,0,.21-.32.84.84,0,0,1,.2-.32,2.52,2.52,0,0,1,.55-.44,2.24,2.24,0,0,0,.55-.43,1.71,1.71,0,0,1,.26-.21,2.36,2.36,0,0,0,.32-.2.71.71,0,0,0,.18-.29,1.6,1.6,0,0,1,.17-.35,1.64,1.64,0,0,1,.29-.2,1.34,1.34,0,0,0,.29-.2v-.18c0-.07.07-.1.09-.08s.05,0,.09-.09a2,2,0,0,0,.34-.44c.08-.13.18-.28.29-.43h.18a.18.18,0,0,0,0-.18.67.67,0,0,1,0-.17l.17.06a.18.18,0,0,0,0-.18.17.17,0,0,1,0-.17s.05-.06.15-.06a.28.28,0,0,0,.2-.06v-.05a.24.24,0,0,1,.06-.18l.11-.23a.62.62,0,0,1,.23-.35.34.34,0,0,0,.18-.29.49.49,0,0,1,.23-.32.28.28,0,0,0,.18-.26c0-.08.07-.12.11-.12s.06,0,.06-.05a1.91,1.91,0,0,0,.2-.56l.09-.55.12-.11a.17.17,0,0,0,.11-.06,5.58,5.58,0,0,0,.09-.61c0-.21,0-.38,0-.49s0-.12-.09-.12-.09,0-.09-.06a.25.25,0,0,1,0-.26.25.25,0,0,0,0-.26,1.57,1.57,0,0,0-.75-1,5.32,5.32,0,0,1-.35,3A17.52,17.52,0,0,1,179.06,292.69ZM167,300.47a.84.84,0,0,1,.35-.12.35.35,0,0,0,.32-.15.28.28,0,0,1,.26-.14.29.29,0,0,0,.26-.15.29.29,0,0,1,.26-.14.25.25,0,0,0,.32-.12,1.24,1.24,0,0,1,.2-.29.19.19,0,0,1,.18,0c.07,0,.13,0,.17,0s.07,0,.09-.11a.51.51,0,0,1,.08-.18.19.19,0,0,1,.18,0,.43.43,0,0,0,.17.06,1.35,1.35,0,0,0,.38-.41.33.33,0,0,1,.38-.17.48.48,0,0,0,.43-.23,2.63,2.63,0,0,1,.26-.35.2.2,0,0,1,.21,0,.1.1,0,0,0,.14,0s.08,0,.12-.12a.83.83,0,0,1,.11-.17c.62-.42,1.18-.84,1.69-1.25s1-.86,1.56-1.36q.46-.4,1-1t.9-1a3.39,3.39,0,0,1,.41-.46,1.5,1.5,0,0,0,.17-.23.91.91,0,0,1,.17-.23,1.86,1.86,0,0,0,.29-.35.67.67,0,0,1,.29-.24.52.52,0,0,0,.12-.23.68.68,0,0,1,.12-.23,1.2,1.2,0,0,1,.17-.29,4.23,4.23,0,0,0,.41-.81l0-.06V290c0-.08,0-.11.09-.11s.09,0,.09-.06a2.27,2.27,0,0,0-.06-1.34,2,2,0,0,0-1-1.22,1.78,1.78,0,0,0-.27-.14l-.37-.09a.23.23,0,0,1-.12-.23,6.35,6.35,0,0,0-2.29-.17,15.73,15.73,0,0,1-2.24,0c0-.19-.06-.22-.08-.08s-.05.2-.09.2a.63.63,0,0,1-.43,0,.51.51,0,0,0-.38,0,2.08,2.08,0,0,0-.61.2,1,1,0,0,1-.49.15c-.2.08-.23.18-.09.32a.57.57,0,0,1,.2.38.87.87,0,0,1-.4.75,7.88,7.88,0,0,1-1.69.17,6.94,6.94,0,0,1-1.68,1.28,2.38,2.38,0,0,1-.06.55.31.31,0,0,1-.35.26c-.08,0-.13,0-.17,0a.2.2,0,0,1-.18.09c-.07,0-.11,0-.11.06a.05.05,0,0,1-.06.06c-.08,0-.19,0-.35-.15s-.21-.05-.17.26a9.58,9.58,0,0,0-.47,2.61,20.36,20.36,0,0,1-.29,2.73c0,.2-.07.36-.11.5s-.08.3-.12.49a6.26,6.26,0,0,0-.17,1.45,2,2,0,0,0,.08.55,3.89,3.89,0,0,1,.15.61.17.17,0,0,1-.12.06l-.11.11h.17c.12.08.11.27,0,.56s-.16.47-.08.55a3.68,3.68,0,0,0,1.19-.32C166.28,300.84,166.64,300.66,167,300.47Zm14.74-28a2,2,0,0,0-.35.29.38.38,0,0,1-.17-.06.19.19,0,0,0-.18,0,1.82,1.82,0,0,1-.17.38.34.34,0,0,1-.12.12s-.05-.05-.05-.21l1.74-1.82a9.29,9.29,0,0,0,1.51-2.12,1.33,1.33,0,0,0-1-.18,4.45,4.45,0,0,1-1,.12,4.07,4.07,0,0,1-.84,0,2.42,2.42,0,0,0-.67,0,.15.15,0,0,0-.11.06l-.06.05a2.69,2.69,0,0,1-.87.09,2.69,2.69,0,0,0-.87.09v.06s-.06.05-.18.05a1.74,1.74,0,0,1-.52.12l-.14,0-.15,0a.57.57,0,0,0-.2.18.27.27,0,0,1-.2.11s-.09,0-.15,0-.11,0-.15,0a.17.17,0,0,0-.11.06h-.06v.06a1.38,1.38,0,0,1-.52.12,1.31,1.31,0,0,0-.52.11,37.43,37.43,0,0,0-3.75,1.31q-1.77.72-3.45,1.53-.34,2.79-.78,5.37c-.29,1.73-.54,3.55-.73,5.49a1.37,1.37,0,0,0,.55-.09l.32-.14H168c.07,0,.11,0,.11-.06a.05.05,0,0,1,.06-.06.38.38,0,0,1,.35-.06.38.38,0,0,0,.35-.06l.11-.11a.24.24,0,0,0,.06-.18.17.17,0,0,1,.17,0q.12.06.18,0a1.49,1.49,0,0,0,.35-.26l.4-.32,1.16-.95,1.05-.9s.09,0,.17,0a.19.19,0,0,0,.18,0,9.46,9.46,0,0,0,.78-.64,5.46,5.46,0,0,1,.84-.64c.66-.47,1.31-.95,1.95-1.45s1.2-1,1.71-1.45a3,3,0,0,1,.67-.53,2.53,2.53,0,0,0,.6-.46.5.5,0,0,0,.15-.26,1,1,0,0,1,.09-.26.44.44,0,0,0,.34-.12s.05,0,0-.11a.18.18,0,0,1,0-.18c0-.08.12-.1.23-.09a.58.58,0,0,0,.3,0,.19.19,0,0,0,0-.18c0-.08,0-.13,0-.17a.21.21,0,0,1,.17-.06.22.22,0,0,0,.17-.06,4.5,4.5,0,0,0,.73-.78,2.86,2.86,0,0,1,.78-.73,1.73,1.73,0,0,1-.08-.26c0-.06,0-.12.14-.2a.35.35,0,0,0-.23.11q-.12.12,0,.18c0,.11,0,.16-.12.14A.31.31,0,0,0,181.73,272.49Zm-13.93,1.63a1,1,0,0,0,.2-.52c0-.08-.05-.09-.11,0a.83.83,0,0,0-.18.26A.22.22,0,0,0,167.8,274.12Z" transform="translate(-155.63 -206.5)"/><path class="cls-4" d="M214,272a.29.29,0,0,0-.15.06s-.06.06,0,.06a.47.47,0,0,1-.31-.12.45.45,0,0,0-.27-.12,5,5,0,0,0-1.45,0c-.27,0-.63.07-1.07.09s-.9,0-1.36,0c-.16,0-.26,0-.29.06a.35.35,0,0,1-.24.06c-.69.07-1.39.12-2.09.14s-1.37,0-2,.09a.7.7,0,0,0-.46.46l-.23.64c-.16.31-.29.59-.41.84l-.46,1-.15.29-.09.17-.2.67c-.06.22-.13.42-.2.61s0,.06-.09.06-.09,0-.09.12,0,0-.05.11-.25.33-.5.64a2.47,2.47,0,0,0-.49.93c-.2,0-.2-.13,0-.26a.42.42,0,0,0,.2-.44,3.31,3.31,0,0,0-.69,1c-.16.33-.33.67-.53,1l-.58.92a3,3,0,0,0-.4,1.05c.07,0,.12,0,.14-.06a.47.47,0,0,1,.09-.12,1.08,1.08,0,0,1,.09-.26,1.07,1.07,0,0,0,.08-.26s.05,0,.15,0,.14,0,.14,0,.08-.07,0-.09-.09-.06,0-.14.08-.11.26-.2a.38.38,0,0,0,.2-.44c.12-.11.2-.15.26-.11l.26.11c.08-.19.15-.35.21-.46a2.08,2.08,0,0,1,.2-.35c.08-.16.12-.18.14-.06s0,.18-.14.18c-.16.46-.3.91-.44,1.36a9.33,9.33,0,0,1-.61,1.48,2.93,2.93,0,0,0-.32.52,1,1,0,0,0-.08.76c0,.07.18.07.55,0s.59-.2.67-.35a5.47,5.47,0,0,0,1.62,0l1-.15,1.07-.2q.18,0,.18,0s0,0,.11,0a.31.31,0,0,0,.35,0,1.11,1.11,0,0,1,.35-.09h1.77c.17,0,.26,0,.26.06a.21.21,0,0,0-.17.06c-.08.07-.1.11-.06.11a.61.61,0,0,0,.35,0l.43,0a.52.52,0,0,1,.29.06c.06,0,.07.14,0,.29a.63.63,0,0,0,.41-.11.33.33,0,0,1,.35-.06,2.4,2.4,0,0,0,.11.23.49.49,0,0,1,.06.23v.18c.08.11.14.15.2.11s0,.06-.14.29a.2.2,0,0,0,.14.18c.1,0,.11.15,0,.34-.11,0-.17.05-.17.15a1,1,0,0,1-.06.32.16.16,0,0,1-.2.09.28.28,0,0,0-.26.08l-.12.15a.58.58,0,0,1-.12.14.29.29,0,0,1-.26,0,.39.39,0,0,0-.26,0,.05.05,0,0,0-.06.06s0,.08-.11.12c-.43,0-.95.09-1.57.17l-1.74.23a5.74,5.74,0,0,1-.67.09q-.37,0-.72.09a.17.17,0,0,0-.06.11.17.17,0,0,1-.12.06,5.39,5.39,0,0,0-1.16.18,5.16,5.16,0,0,1-.67.05h-.61s0,.06,0,.06a.12.12,0,0,0-.09,0,.12.12,0,0,1-.09,0,5,5,0,0,0-1.07.12c-.37.07-.77.13-1.19.17a34,34,0,0,0-1.66,4c-.44,1.34-.91,2.7-1.42,4.09-.11.32-.28.74-.49,1.28a7.76,7.76,0,0,0-.44,1.57,2.48,2.48,0,0,1,.82-.09,3.77,3.77,0,0,0,.93-.08.88.88,0,0,1,.29-.06,2.38,2.38,0,0,0,.4-.06l.2,0q.15,0,.15,0c.12-.08.2-.09.26,0s.24.07.55,0a1.22,1.22,0,0,0,.44-.06,1.16,1.16,0,0,1,.43-.06.17.17,0,0,1,.12.06c.08.08.15.1.23.06v-.06l.12-.06a6.14,6.14,0,0,1,.75-.06h.58c.2,0,.29,0,.29.06v.12s0,0,.12-.06a.05.05,0,0,1,.06-.06.33.33,0,0,1,.23.06.32.32,0,0,0,.23.06c.54,0,1.08.06,1.63.06s1.08,0,1.62.06a.31.31,0,0,1-.32.14c-.13,0-.2,0-.2.14s-.06.14.06.06.19-.09.23-.06.06,0,.06.12a.3.3,0,0,0,.05.18l.27,0a.39.39,0,0,1,.26,0s0,0,0,0,0,0,.08.09a1.88,1.88,0,0,0,.67,0,2.24,2.24,0,0,1,.73,0,5.13,5.13,0,0,1,1.13.23,1.51,1.51,0,0,0,.78.12c0,.19,0,.29.15.29s.16.1.08.29a.73.73,0,0,1,.61.2,1,1,0,0,0,.38.32c-.16.2-.29.21-.41,0a.53.53,0,0,0-.46-.26,5.29,5.29,0,0,0,0,1,2.81,2.81,0,0,1-.09.9,3,3,0,0,1-1.19-.09,3.08,3.08,0,0,1-.84-.44q-.28.12,0,.24a1.17,1.17,0,0,1,.44.23c-.2.15-.36.14-.5,0s-.34-.2-.61-.09a.46.46,0,0,1,.06-.29.59.59,0,0,0,.12-.23,2.27,2.27,0,0,0-.5.06.9.9,0,0,1-.55-.06c-.27,0-.64-.07-1.1-.09s-1,0-1.48,0h-2.93a.88.88,0,0,0-.41.09.54.54,0,0,1-.4,0c-.31,0-.39,0-.23-.09s.19-.08.11-.08-.13-.09-.14,0-.05.08-.09.08h-.06v-.05a.64.64,0,0,0-.23.05c-.08,0-.12,0-.12-.05a5.64,5.64,0,0,0-.72,0,8.28,8.28,0,0,1-.84,0,.59.59,0,0,1,.46-.2,2.6,2.6,0,0,0,.64-.14.8.8,0,0,0-.79-.18l-.78.18-.32,0a.54.54,0,0,0-.32,0c-.15,0-.21.07-.17.11s0,.1-.06.18l-.26,0a.38.38,0,0,0-.26,0l-.06.05h-.12a.88.88,0,0,1-.29.06.53.53,0,0,0-.23.06c-.11,0-.18,0-.2.06a.91.91,0,0,0,0,.23.85.85,0,0,1,0,.23c0,.08-.09.12-.2.12a.53.53,0,0,1-.23.14.45.45,0,0,0-.24.21,7.49,7.49,0,0,1-.81.06,1.42,1.42,0,0,1-.64-.18c-.27.16-.25.27.06.35-.08.15-.21.17-.41.06a1.39,1.39,0,0,0-.75-.18,3.4,3.4,0,0,0-1.83.58,13.21,13.21,0,0,1-1.65.93c0,.16,0,.25.11.29s.1.16.06.35a12.23,12.23,0,0,1-1.48,0,1.17,1.17,0,0,1-1-.38,1.29,1.29,0,0,1,.15-.66,2.81,2.81,0,0,1,.35-.5l.38-.46a1.5,1.5,0,0,0,.23-.64.47.47,0,0,0,.4-.47c.2.08.33.05.41-.08a.52.52,0,0,1,.29-.26.31.31,0,0,1,.29-.09.47.47,0,0,0,.35-.09.26.26,0,0,0,.2-.11.67.67,0,0,1,.2-.18l.18,0c.08,0,.11,0,.11,0l.06-.06v-.11a1.07,1.07,0,0,1,.35-.06,1.07,1.07,0,0,0,.35-.06.1.1,0,0,0,.09-.06.35.35,0,0,1,.14-.11.84.84,0,0,0,.26,0,.88.88,0,0,1,.26,0,39.4,39.4,0,0,1,1.43-6q.94-3,2-5.83a.58.58,0,0,0-.58.06,1,1,0,0,1-.7.11c0-.19-.21-.29-.52-.29-.12-.07-.12-.15,0-.23l.4-.23c0-.15-.11-.22-.34-.2s-.31-.07-.24-.26a.14.14,0,0,0,0-.15.12.12,0,0,1,0-.14h.35a.34.34,0,0,0-.14-.38c-.14-.1-.09-.24.14-.44a.08.08,0,0,0,0-.11.21.21,0,0,1,0-.18,7.83,7.83,0,0,1,1.45-.43,7.15,7.15,0,0,0,1.45-.44,66.33,66.33,0,0,1,2.55-6.15c.93-1.93,1.9-3.89,2.91-5.86-.08-.16-.22-.18-.41-.06a1.76,1.76,0,0,1-.58.23,3.17,3.17,0,0,1-.87,0,3.62,3.62,0,0,0-.93,0l.87-.75a2.6,2.6,0,0,1,1-.52c0-.08-.13-.09-.26,0a.51.51,0,0,1-.38,0,.05.05,0,0,1-.06-.06s0-.06-.12-.06-.12,0-.14-.06-.07-.06-.15-.06,0,0-.08.09a.25.25,0,0,1-.26,0,.05.05,0,0,1-.06-.06l-.06-.06a1.11,1.11,0,0,1-.23-.17.68.68,0,0,0-.23-.12,1,1,0,0,1,.58-.29c0-.11-.1-.17-.29-.17s-.26-.06-.18-.17,0-.31.15-.35a.77.77,0,0,0,.32-.18.36.36,0,0,0,0-.2c0-.06,0-.12.08-.2.16-.24.35-.51.58-.82a2.59,2.59,0,0,1,.61,0,3.21,3.21,0,0,0,.73,0,1.17,1.17,0,0,0,.32,0l.2-.09c-.08.08,0,.12.17.12s.12,0,.12,0,0-.05.06-.09a.22.22,0,0,1,.17.06s.1,0,.18-.06c.11.08.13.14.05.17a.2.2,0,0,0-.11.18c.11-.08.18-.1.2-.06a1.16,1.16,0,0,1,.06.15.31.31,0,0,0,.12.14c.05,0,.16,0,.31-.06s.17-.06.15-.2.07-.13.26,0a.05.05,0,0,0,.06-.06.17.17,0,0,1-.06-.12.32.32,0,0,1,.23-.14c.12,0,.18-.13.18-.32a4.28,4.28,0,0,0,1,.09l1.13-.09c0,.16-.14.22-.31.2s-.27.05-.27.21,0,.17,0,.17a.48.48,0,0,0,.21-.06l.23-.11a.24.24,0,0,1,.23,0,2.26,2.26,0,0,0,.81,0c.31,0,.76-.07,1.34-.09a17,17,0,0,0,1.74-.15l2-.17a.52.52,0,0,0,.23-.12.43.43,0,0,1,.24-.05q.93-.06,1.77,0l1.65,0h1.6a3,3,0,0,1,1.42.34.37.37,0,0,1-.09.27.48.48,0,0,0-.14.2.51.51,0,0,0,.17.43c.12.1.21.19.29.27a2.1,2.1,0,0,0-.75,1.33l-1.11.61a1.44,1.44,0,0,1-1.22.09h-.34A.48.48,0,0,0,214,272Zm-13.87,12.19h-.35c-.12,0-.17.08-.17.23.38,0,.76-.1,1.13-.17a3.85,3.85,0,0,1,1.19-.06l.23,0q.12,0-.12-.09a6.73,6.73,0,0,0-1.07,0A3.89,3.89,0,0,0,200.13,284.16Zm7.6-16.25a8.73,8.73,0,0,0-2,.08,8.21,8.21,0,0,1-1.69.15.4.4,0,0,1,.29-.12,1.28,1.28,0,0,0,.47-.11l.4,0c.2,0,.45,0,.76,0a1.42,1.42,0,0,1,.49-.15,2.36,2.36,0,0,1,.79,0c.07,0,.1,0,.08.05a.1.1,0,0,0,0,.12.41.41,0,0,0,.26-.12C207.74,267.66,207.77,267.71,207.73,267.91Z" transform="translate(-155.63 -206.5)"/><path class="cls-4" d="M247.72,270a2,2,0,0,1-.06,1c-.12.39-.25.8-.41,1.22a1,1,0,0,1-.17.29.35.35,0,0,0-.12.23.88.88,0,0,1-.06.29,5.62,5.62,0,0,1-.37.76c-.18.31-.32.56-.44.75a3.76,3.76,0,0,1-.23.41,2.82,2.82,0,0,1-.29.35l-.23.34c-.08.12-.18.28-.29.47a.25.25,0,0,1-.15.14.26.26,0,0,0-.14.15.45.45,0,0,1-.21.14.29.29,0,0,0-.14.15.16.16,0,0,0-.09.2.28.28,0,0,1-.08.26.37.37,0,0,1-.27.12.37.37,0,0,0-.26.12.53.53,0,0,0-.06.26.36.36,0,0,1-.11.26,3.51,3.51,0,0,1-.32.26,2.51,2.51,0,0,0-.32.26l-.7.58c-.23.19-.44.39-.63.58-.74.66-1.46,1.26-2.15,1.8s-1.43,1.08-2.21,1.63a3.22,3.22,0,0,1-.75.46,3.5,3.5,0,0,0-.76.46.6.6,0,0,0-.14.26.28.28,0,0,1-.15.21.23.23,0,0,1-.26.06.23.23,0,0,0-.26.05,2.15,2.15,0,0,0-.32.29,1,1,0,0,1-.37.29l-.3.27-.34.26a1.56,1.56,0,0,1-.44.23,1.84,1.84,0,0,0-.38.17,4.45,4.45,0,0,0-.43.26l-.44.32-.32.26a1.69,1.69,0,0,1-.32.27l-.46.2a2.23,2.23,0,0,0-.41.2c-.19.12-.37.24-.55.38a5.76,5.76,0,0,1-.61.43,6.78,6.78,0,0,1-1.27.79,9.61,9.61,0,0,0-1.4.84,1.26,1.26,0,0,0,.32.73,3.79,3.79,0,0,1,.5.6,3.34,3.34,0,0,1,.49.47,1.14,1.14,0,0,1,.38.64v.17a9,9,0,0,0,1,1.05,8.18,8.18,0,0,1,1,1s0,.1,0,.17,0,.14,0,.18.19.21.35.4c0,0,.09,0,.17,0a.19.19,0,0,1,.18,0,.3.3,0,0,1,.08.27.28.28,0,0,0,.09.26,3.24,3.24,0,0,0,.49.49,3.29,3.29,0,0,1,.5.49l.9,1.16a11.13,11.13,0,0,0,1,1.11l.47.58c.15.19.33.38.52.58a.18.18,0,0,0,.18,0,.17.17,0,0,1,.17,0c.19.27.44.6.72,1a10.69,10.69,0,0,0,.9,1.05l.38.2a.75.75,0,0,1,.32.26.87.87,0,0,1,.18.26.56.56,0,0,0,.17.26,4.3,4.3,0,0,0,.58.5,4.2,4.2,0,0,1,.58.49c.08.12.15.22.23.32l.23.26a1.05,1.05,0,0,0,.27.2,1.71,1.71,0,0,1,.26.21c.34.31.7.64,1.07,1a3.72,3.72,0,0,0,1.25.84c-.23.16-.31.23-.23.21s.21.08.4.32a.34.34,0,0,1,.09.32c0,.13.07.2.26.2.19.19.2.34,0,.43a.5.5,0,0,0-.2.56,1.54,1.54,0,0,1-1-.73,2.59,2.59,0,0,0-.84-.9,1.44,1.44,0,0,0,.26,1.25,1.6,1.6,0,0,1,.44,1,.37.37,0,0,0-.5.06c-.13.16-.24.1-.32-.17a12.25,12.25,0,0,1-1.3-.87l-1.25-.93a5.43,5.43,0,0,0-.58-.52A5.68,5.68,0,0,1,237,307a1.85,1.85,0,0,1-.49-.55,2.37,2.37,0,0,0-.5-.55.16.16,0,0,0-.17,0,.18.18,0,0,1-.18,0l-.34-.46a6.48,6.48,0,0,0-.47-.52,10.32,10.32,0,0,1-1.13-1.22,10.36,10.36,0,0,0-1.19-1.28q-.12-.06-.09-.09s0,0-.08-.08a.46.46,0,0,1-.27-.24,1.1,1.1,0,0,0-.26-.34l-1-1.11c-.31-.34-.64-.73-1-1.16a9.36,9.36,0,0,0-1-1.07,10.22,10.22,0,0,1-1-1.07l-.52-.53a.85.85,0,0,1-.15-.37,1,1,0,0,0-.14-.38c-.27-.31-.53-.58-.76-.81s-.48-.53-.75-.87a16,16,0,0,1-1.16-1.86h-.18a.36.36,0,0,0-.32-.41.41.41,0,0,1-.37-.35,2.42,2.42,0,0,1-.82.35,2.07,2.07,0,0,0-.81.41,1.27,1.27,0,0,1-.26.9,1.16,1.16,0,0,0-.26.84.21.21,0,0,1-.15-.26,1.12,1.12,0,0,0,0-.44,1.19,1.19,0,0,0-.31.82,1.22,1.22,0,0,1-.32.81,2.2,2.2,0,0,0,.23.81,1.89,1.89,0,0,1,.06,1.05.74.74,0,0,1-.06.37,1.29,1.29,0,0,0-.12.26,1.56,1.56,0,0,0,.09.5,1.67,1.67,0,0,1,.09.55.83.83,0,0,0-.12.17c-.08.16-.1.26-.06.29s.1.14.06.18-.06.15-.06.35a1.29,1.29,0,0,0,.12.26.43.43,0,0,1,.06.26s0-.05-.12,0-.1.07-.06.14a.05.05,0,0,0,.06.06s.06,0,.06,0,0,0,.06,0a.5.5,0,0,0,.17.12c0,.07,0,.11-.06.11h-.11a.5.5,0,0,0,.11.18.22.22,0,0,1,.06.17,6.22,6.22,0,0,1-.12,1.77,3.66,3.66,0,0,0,.12,1.77,2.06,2.06,0,0,0,.26.41,1.64,1.64,0,0,1,.26.46s-.08,0-.11,0a.24.24,0,0,0-.06.18s0,.05.06.05l.11.12v.52c-.35-.11-.52,0-.52.41a2.47,2.47,0,0,1-.81-.12l-.7-.23c-.08,0-.11,0-.11.06a.14.14,0,0,0,0,.11s.05.07,0,.09-.1,0-.26,0a3.33,3.33,0,0,1-.61-.2,1.82,1.82,0,0,1-.61-.5.36.36,0,0,1-.08-.32.9.9,0,0,0,0-.37.53.53,0,0,0-.21-.21c-.09,0-.14-.1-.14-.14a.45.45,0,0,1,0-.35.31.31,0,0,0,0-.35.34.34,0,0,1-.12-.26c0-.09,0-.3-.06-.61s-.17-.94-.29-1.65a7.54,7.54,0,0,1,0-2.06c0-.5.09-1.09.17-1.74s.15-1.34.23-2,.16-1.34.23-1.94.16-1.09.24-1.48a.52.52,0,0,0-.15-.38,1.44,1.44,0,0,0-.32-.23.92.92,0,0,1-.29-.23.68.68,0,0,1-.11-.44c.19-.19.37-.25.55-.17a.34.34,0,0,0,.43-.06c0-.31,0-.4-.17-.29a.85.85,0,0,1-.9-.14c-.14-.18-.11-.24.09-.21,0-.42.07-.52.34-.29s.38.13.44,0,.18-.1.38,0a1.89,1.89,0,0,0-.44-.81,1.1,1.1,0,0,1-.2-1,.45.45,0,0,1,.43,0c.1.08.28.08.56,0a12,12,0,0,1,.34-1.82,2.24,2.24,0,0,0-.17-1.66c.31.12.45.06.43-.17s.05-.37.21-.41a23,23,0,0,1,.61-3c.25-.92.49-1.85.72-2.78,0-.23,0-.33.12-.29l.23.11a1.67,1.67,0,0,1,.17-.78,1.55,1.55,0,0,0,.18-.78c-.12-.2-.24-.19-.38,0a1.91,1.91,0,0,1-.43.49l-.47.35a2.78,2.78,0,0,0-.4.35.38.38,0,0,0-.06.17s0,.1-.12.17a4.11,4.11,0,0,0-.35.29c-.19.2-.29.33-.29.41a.51.51,0,0,1-.2.41,1.23,1.23,0,0,0-.32.4.64.64,0,0,0,.12.58.6.6,0,0,1,.06.58c.11.08.16.13.14.15l-.12.09-.2.14c-.08.06-.08.15,0,.26a2.14,2.14,0,0,0-.81,0l-.7.18a5.42,5.42,0,0,1-.72.11,3,3,0,0,1-.9-.09c-.08-.07-.09-.18,0-.32a.39.39,0,0,0,0-.31.27.27,0,0,0-.26-.12q-.21,0-.27-.12a.65.65,0,0,1,0-.34.53.53,0,0,0,0-.35,5.88,5.88,0,0,1-.11-1.25,2.38,2.38,0,0,1,.29-1.25.42.42,0,0,0,.09-.23.53.53,0,0,1,.08-.23.6.6,0,0,0,.23-.29l.24-.47a.56.56,0,0,1,.2-.14.27.27,0,0,0,.15-.15s0-.09,0-.17,0-.14,0-.18l.11.06H216a.53.53,0,0,0,.06-.26.4.4,0,0,1,.11-.26.18.18,0,0,1,.18,0,.14.14,0,0,0,.17-.09.18.18,0,0,0,.06-.23c0-.08,0-.15.06-.23a.45.45,0,0,1,.2-.06.2.2,0,0,0,.15-.06.24.24,0,0,0,.08-.23.23.23,0,0,1,.09-.23.14.14,0,0,1,.17-.09.18.18,0,0,0,.18,0c.19-.19.36-.36.49-.52s.3-.33.5-.52c.88-.77,1.77-1.47,2.64-2.09a13.72,13.72,0,0,1,2.35-1.39c.11-.35.24-.72.37-1.11a7.27,7.27,0,0,1,.5-1.1c.15-.31.32-.62.49-.93s.51-.42,1-.35q0,.12-.21.21c-.13.06-.18.14-.14.26a.15.15,0,0,0,.11-.06.12.12,0,0,0,.09,0,.12.12,0,0,1,.09,0l.17.18a1.62,1.62,0,0,1,.12.64,7.93,7.93,0,0,0,.06.87.93.93,0,0,0,.52-.12.18.18,0,0,0,.17-.12.2.2,0,0,1,.18-.11.23.23,0,0,1,.23-.09.31.31,0,0,0,.23,0l.29-.14a2.46,2.46,0,0,1,.41-.09l.26-.12.38-.11a4.34,4.34,0,0,1,.87-.23.5.5,0,0,0,.17-.15.5.5,0,0,1,.17-.15.69.69,0,0,1,.24-.05.53.53,0,0,0,.23-.06,2.8,2.8,0,0,1,.64-.15,3.82,3.82,0,0,0,.69-.14.05.05,0,0,0,.06-.06s0-.08.12-.12a.24.24,0,0,1,.17.06s.1,0,.18,0,.08-.05.14-.14.13-.15.2-.15a.53.53,0,0,1,.24.06.24.24,0,0,0,.23,0,.18.18,0,0,0,.17-.12.2.2,0,0,1,.18-.11s.08,0,.14,0a.18.18,0,0,0,.2,0q.12,0,.12-.06a.05.05,0,0,1,.06-.06,1.33,1.33,0,0,1,.49,0,1.38,1.38,0,0,0,.5,0l.05-.05.12-.06.49-.12a1.8,1.8,0,0,1,.5-.06c.54-.07,1.14-.14,1.8-.2s1.33-.09,2-.09a8.72,8.72,0,0,1,1.51,0,7.32,7.32,0,0,1,1.68.38.25.25,0,0,1,.14.15.14.14,0,0,0,.15.08.43.43,0,0,0,.17-.06c.08,0,.08-.07,0-.11a1.46,1.46,0,0,1,.18.2,1,1,0,0,0,.17.2,3.54,3.54,0,0,0,.55.44,1.13,1.13,0,0,1,.44.73c.38,0,.63,0,.72.26a.85.85,0,0,0,.61.43l.7,1.22q.06.12.09.09s0,0,.08.14a.42.42,0,0,0,.15.32.54.54,0,0,1,.14.38.62.62,0,0,0,.12.17A.24.24,0,0,1,247.72,270Zm-30.53,10.91a.79.79,0,0,0-.35-.06v.35h.35Zm2.5,11.84a.63.63,0,0,0,0-.38c-.06-.14-.11-.12-.15,0a1.42,1.42,0,0,0,.06.38Q219.63,293,219.69,292.75Zm.52.93c-.16-.35-.18-.51-.06-.47s.19-.08.23-.35c-.23-.11-.4,0-.49.32S219.9,293.68,220.21,293.68Zm1.68-8.94a56.05,56.05,0,0,1,1.51-5.52q.87-2.61,1.63-5.39c.07,0,.12,0,.14-.06s0-.08-.14-.12l-1.05.7c-.35.23-.72.44-1.1.64a3.47,3.47,0,0,0-.12,1.28,4,4,0,0,1-.06,1.21,3.46,3.46,0,0,1-.17.67,3.13,3.13,0,0,0-.17.61,3.11,3.11,0,0,1-.09.64l-.18.84a4,4,0,0,1-.2.75,1.4,1.4,0,0,1-.17.38v.29a6.35,6.35,0,0,0-.18.76,6.53,6.53,0,0,1-.17.75,5.31,5.31,0,0,1-.18.64,2.76,2.76,0,0,1-.17.46.33.33,0,0,0,.09.44.69.69,0,0,0,.43.14c0-.19.1-.23.18-.11S221.85,284.85,221.89,284.74Zm21.36-13.35a5.45,5.45,0,0,0,.2-.61.61.61,0,0,0-.2-.61c0,.08,0,.17-.18.26s-.21.07-.17-.09a.74.74,0,0,0,.41-.34.45.45,0,0,0-.06-.47,3.16,3.16,0,0,0-1.42-.26,7.86,7.86,0,0,0-1.08.09,1.12,1.12,0,0,1-.35-.06,1,1,0,0,0-.34-.06.24.24,0,0,0-.18.06.22.22,0,0,1-.17.06.61.61,0,0,1-.38,0,.22.22,0,0,0-.26.06.17.17,0,0,1-.17,0l-.18,0a1.14,1.14,0,0,1-.43,0,1,1,0,0,0-.38,0,.17.17,0,0,0-.12.06l0,.06a2.41,2.41,0,0,1-.79.09,3,3,0,0,0-.72,0,2.76,2.76,0,0,0-.44.11,2.9,2.9,0,0,1-.38.12l-1.07.26a1.71,1.71,0,0,0-.78.32l-.53.06a.38.38,0,0,1-.17.06s-.08,0-.12.11a.49.49,0,0,1-.17-.06c-.08,0-.14,0-.17,0a1.31,1.31,0,0,0-.53.24s-.09,0-.17,0a.49.49,0,0,0-.17-.06.62.62,0,0,0-.12.17.19.19,0,0,1-.18.12,1.31,1.31,0,0,1-.52.11,1.38,1.38,0,0,0-.52.12,6.78,6.78,0,0,0-.72.29c-.26.12-.5.21-.73.29a1,1,0,0,1-.44.12,1.05,1.05,0,0,0-.43.11l-.15.15a.6.6,0,0,1-.2.14,1,1,0,0,1-.46.12,40.89,40.89,0,0,0-1.92,6.15c-.5,2.17-1,4.33-1.62,6.5a.23.23,0,0,0,.29,0,.35.35,0,0,1,.23-.09.34.34,0,0,0,.32-.17,1.06,1.06,0,0,1,.2-.29.17.17,0,0,0,.12.06h.17a1.71,1.71,0,0,1,.26-.21.86.86,0,0,0,.26-.2c.31-.23.59-.43.84-.58l.85-.52c.19-.16.38-.3.58-.44s.38-.28.58-.43a1.51,1.51,0,0,1,.23-.21l.29-.2a.38.38,0,0,1,.29-.12.6.6,0,0,0,.35-.11,1.72,1.72,0,0,0,.49-.44,1.83,1.83,0,0,1,.49-.43l.9-.58.79-.52,1.68-1.28a2,2,0,0,0,.49-.41,3.79,3.79,0,0,1,.5-.46.41.41,0,0,1,.32-.12.7.7,0,0,0,.37-.11,3.72,3.72,0,0,0,.82-.85c.31-.4.58-.59.81-.55s.16,0,.14-.06,0-.07,0-.11a4,4,0,0,0,.76-.49c.19-.18.38-.34.58-.5s.72-.51,1.13-.84.76-.61,1.07-.84a.7.7,0,0,0,.12-.26c0-.14.1-.21.17-.21s.12,0,.12.09,0,.09.06.09c-.16-.08-.2,0-.12.17s.12.2.12,0,.06-.24.2-.26a.59.59,0,0,0,.32-.14,1.26,1.26,0,0,0,.23-.5c0-.17.18-.2.41-.08a.48.48,0,0,0-.15.29.82.82,0,0,1-.14.34,1.71,1.71,0,0,1-.26.21,1.06,1.06,0,0,0-.26.2v.17a.35.35,0,0,1-.12.24l-.23.23a.73.73,0,0,1-.21.23c-.09.08-.08.16,0,.23.2-.23.35-.4.47-.52l.35-.35c.11-.11.19-.17.23-.17s.1,0,.08,0,0-.08,0-.12a2,2,0,0,0,.29-.32l.24-.26a3.44,3.44,0,0,0,.29-.64A1.13,1.13,0,0,1,243.25,271.39Zm-19,21c-.08.11-.12.13-.14.06S224.1,292.36,224.21,292.4Zm15.67-26.35a1.06,1.06,0,0,1-.55,0c-.21-.06-.3,0-.26.26.46.08.84.16,1.13.23a1,1,0,0,0,.67,0,1.78,1.78,0,0,1,.61-.11,3.08,3.08,0,0,0,.61-.06l.29,0c.11,0,.17,0,.17-.09a1.24,1.24,0,0,1-.52-.11l-.46-.24a1.06,1.06,0,0,0-.44,0,1,1,0,0,1-.38.06v-.17c-.08-.08-.11-.06-.11.06a.15.15,0,0,0-.06.11s-.13,0-.26,0l-.26-.06q-.12,0-.12,0T239.88,266.05Z" transform="translate(-155.63 -206.5)"/><path class="cls-4" d="M257.58,267.91s0-.06,0-.06,0,0,0-.06a40.26,40.26,0,0,0-4.67.49c-1.49.26-3,.54-4.44.85-.12,0-.17.07-.17.23s-.06.21-.18.17a.28.28,0,0,1-.2.15.17.17,0,0,0-.15.2l-2-.23.23-.32a1,1,0,0,0,.18-.32,1,1,0,0,0-.79,0,.42.42,0,0,1-.55-.14c.12-.27.16-.43.12-.47s0-.21,0-.52a.75.75,0,0,1,.2-.41c.1-.07.13-.25.09-.52a.34.34,0,0,0,.32-.17.66.66,0,0,1,.26-.29.24.24,0,0,1,.23,0,.5.5,0,0,0,.23.05s.08,0,.12-.14.08-.15.12-.15a.45.45,0,0,1,.37-.08,1,1,0,0,0,.44,0l.7-.06.05-.17a2.28,2.28,0,0,1,.82-.09,2.69,2.69,0,0,0,.87-.09v-.06s.05-.05.17-.05l.26,0c.14,0,.2,0,.2,0a.37.37,0,0,1,.38,0,.37.37,0,0,0,.38,0v-.12l.81-.11c.78-.08,1.61-.14,2.5-.18a18.61,18.61,0,0,0,2.61-.29,3.6,3.6,0,0,1,.93,0,3.46,3.46,0,0,0,1.1-.06s.12,0,.23,0,.2.07.23,0a.89.89,0,0,0,.15-.29.72.72,0,0,1,.26-.35.8.8,0,0,0-.52,0,1,1,0,0,1-.47.09l0-.06-.12-.11s0,0,0,.06a.39.39,0,0,1-.14.05l-.18,0c-.08,0-.13,0-.17,0l-.29.12a.36.36,0,0,0-.18.09c-.07.05-.09.08-.05.08a.23.23,0,0,1-.15-.17c0-.08-.07-.1-.14-.06a.17.17,0,0,1-.06.12.24.24,0,0,1-.18.06c-.27-.08-.42,0-.46.11-.23-.08-.25-.16-.06-.26a.66.66,0,0,1,.58,0c-.08-.19-.27-.29-.58-.29a.9.9,0,0,0-.58.12.62.62,0,0,0-.58,0,.68.68,0,0,1-.58,0c0-.12.06-.17.17-.15l.35,0q.12-.06.09-.12a.11.11,0,0,0-.09,0q.06-.12.15-.09a.25.25,0,0,0,.2,0l1.34-.23a8.71,8.71,0,0,0,1-.06,4.83,4.83,0,0,1,1.28.06,1.68,1.68,0,0,1,.32.05.41.41,0,0,1,.26.18,1.16,1.16,0,0,0,.72-.52,1.22,1.22,0,0,1,.73-.53,1.79,1.79,0,0,0,.78.24,2.94,2.94,0,0,1,.73.11.52.52,0,0,1,.2.29c.06.16.24.2.55.12a.27.27,0,0,1,.09.26.38.38,0,0,0,0,.26.32.32,0,0,0,.12.15s.05,0,.05,0l.26.2c.1.06.05.18-.14.38a2.49,2.49,0,0,1,1.07.14,1,1,0,0,0,1-.08.23.23,0,0,0,0-.21c0-.09,0-.12.09-.08a1.31,1.31,0,0,0,.84.05,1.54,1.54,0,0,1,.72-.05c-.11-.28-.38-.41-.81-.41a.42.42,0,0,1,.52-.17,1.62,1.62,0,0,0,.53.11l.17-.17a.66.66,0,0,1,.44,0,.6.6,0,0,0,.37,0,3.3,3.3,0,0,0,1-.15,2.14,2.14,0,0,1,1.25.09.53.53,0,0,0-.55-.26,2.92,2.92,0,0,1-.73,0,9.21,9.21,0,0,0-1.22-.15,6.65,6.65,0,0,0-1.1,0c0-.15.12-.2.35-.14s.33,0,.29-.27c2.09.16,4.22.23,6.41.21a26.37,26.37,0,0,1,6.41.72c0,.08,0,.13-.17.15s-.21.07-.17.14a.63.63,0,0,0,.46.24,1.66,1.66,0,0,1,.7.29.08.08,0,0,1,0,.11s0,.1.11.18a.13.13,0,0,0,.15,0l.14,0a1,1,0,0,1,.06.92.72.72,0,0,0,.35.18c.15,0,.19.15.12.35-.2-.24-.33-.17-.41.2s-.16.69-.23,1c-.39-.12-.6-.06-.64.17a15.7,15.7,0,0,0-2.5-.32c-1-.06-1.95-.08-2.84-.08h-3.08a.53.53,0,0,1-.23-.06.36.36,0,0,0-.29,0,.17.17,0,0,0-.12.08c0,.06-.09.07-.17,0-.43,0-.82,0-1.19-.05a5.91,5.91,0,0,0-1.19,0,1.33,1.33,0,0,0-.49,0l-.5.08-.46-.05a.36.36,0,0,1-.17-.15.2.2,0,0,0-.18-.09,2.08,2.08,0,0,0-.55.09,2.25,2.25,0,0,1-.61.09,10.74,10.74,0,0,1-1.94.06,15.75,15.75,0,0,0-2,0l-.69.23-.87,3-.35.69a.82.82,0,0,0,0,.18.16.16,0,0,1,0,.17,2.51,2.51,0,0,0-.81,1.45,2.68,2.68,0,0,1-.88,1.51,1,1,0,0,1-.05.73,2,2,0,0,0-.24.61.28.28,0,0,0,0,.2,1,1,0,0,1,0,.15.48.48,0,0,1-.2.2c-.1.06-.14.1-.14.14a2.36,2.36,0,0,0-.09.84,2.39,2.39,0,0,1-.09.85h-.11s-.06.05-.06.17a1.11,1.11,0,0,1-.12.52,4.1,4.1,0,0,0-.23.64,1.27,1.27,0,0,0-.06.41.75.75,0,0,1-.11.4.05.05,0,0,1-.06.06s-.06,0-.06.12v.17l-.17.18a6.7,6.7,0,0,0-.18.75c0,.23-.1.48-.17.75q0,.06-.09,0t-.09.09a2.23,2.23,0,0,0,0,.32c0,.14,0,.2,0,.2a2,2,0,0,0-.34.7c-.32,1-.58,1.93-.79,2.87s-.45,1.93-.72,2.93a.05.05,0,0,1-.06.06s-.06,0-.06.12,0,.12,0,.26a2.23,2.23,0,0,1,0,.26.27.27,0,0,0-.12.32.32.32,0,0,1,0,.32H255l-.17.87c-.12.46-.25,1-.41,1.71s-.29,1.33-.4,1.94l-.53,2.33a.29.29,0,0,0,0,.26.3.3,0,0,1,0,.26l-.17.17c-.08.43-.14.82-.18,1.16a11.63,11.63,0,0,1-.17,1.16,5.22,5.22,0,0,0-.06.73,6.79,6.79,0,0,1-.11,1c0,.31-.1.74-.18,1.3a3.37,3.37,0,0,0,.18,1.66.16.16,0,0,0,.2.14c.1,0,.14-.07.14-.14a.7.7,0,0,1,.18.11.24.24,0,0,0,.17.06.74.74,0,0,0-.17.52.71.71,0,0,1-.18.53c-.15,0-.18-.09-.08-.15s.12-.13.08-.2a.89.89,0,0,0-.43-.47c-.21-.11-.28-.34-.2-.69a.29.29,0,0,0-.21.4,1.15,1.15,0,0,1,0,.58,1.63,1.63,0,0,1-.17.5.53.53,0,0,0,0,.49.34.34,0,0,0-.38-.12c-.17,0-.28,0-.32-.23-.19,0-.26.18-.2.41s0,.33-.26.29a.64.64,0,0,1-.58-.12,1.28,1.28,0,0,1-.29-.4.64.64,0,0,0-.38-.15,1.14,1.14,0,0,1-.44-.14.53.53,0,0,1-.05-.44c0-.21,0-.36-.12-.43a1.07,1.07,0,0,1-.17-.58,8.27,8.27,0,0,1-.06-1.05c0-.39,0-.77,0-1.16s0-.68,0-.87c.07-.89.19-1.9.34-3s.33-2.17.53-3.13c.11-.7.24-1.4.37-2.12s.28-1.4.44-2.06.23-1.18.35-1.8a19,19,0,0,1,.46-1.92v-.29a1.45,1.45,0,0,0,.29-.72c.08-.37.16-.69.23-1a.75.75,0,0,0,0-.17c0-.08,0-.14,0-.18a1.48,1.48,0,0,0,.26-.61l.27-.9a.86.86,0,0,0,0-.17c0-.08,0-.14,0-.17a.81.81,0,0,0,.14-.44,4.12,4.12,0,0,1,.15-.73l0-.05a.11.11,0,0,0,.12-.12c.08-.27.16-.53.26-.78a5.55,5.55,0,0,0,.26-.84c.08-.27.14-.52.18-.73a7.63,7.63,0,0,1,.17-.78.05.05,0,0,1,.06-.06s.08,0,.12-.12a.65.65,0,0,0,0-.17.21.21,0,0,1,0-.18s0-.08.14-.14.15-.13.15-.2a1,1,0,0,0,.08-.47,1.16,1.16,0,0,1,.09-.52.17.17,0,0,1,.12-.06s.05,0,.05-.11a1.53,1.53,0,0,1,.12-.44,5.1,5.1,0,0,1,.23-.55c.2-.54.42-1.18.67-1.92s.52-1.5.81-2.29.59-1.57.9-2.32.58-1.42.81-2Zm-5.45,37.26a1.81,1.81,0,0,0,.2-1.19,4.59,4.59,0,0,0-.2-1,1.12,1.12,0,0,1-.06-.38c0-.13-.1-.16-.29-.08a1.67,1.67,0,0,0-.15.64c0,.27,0,.55,0,.84a2.37,2.37,0,0,0,.11.78A.55.55,0,0,0,252.13,305.17Z" transform="translate(-155.63 -206.5)"/><path class="cls-4" d="M278.13,266.57a.43.43,0,0,1,.64,0c-.08.43-.15.84-.21,1.25a8.44,8.44,0,0,1-.26,1.25c-.08.27-.15.53-.23.78s-.17.53-.29.84a.53.53,0,0,1-.06.24,1.18,1.18,0,0,0-.11.29c0,.07-.08.11-.12.11a.05.05,0,0,0-.06.06c-.15.39-.31.77-.46,1.16s-.31.79-.47,1.22l-.23.61c-.08.21-.15.41-.23.61a.08.08,0,0,1-.06.08.32.32,0,0,0-.12.15.16.16,0,0,0,0,.15,1,1,0,0,1,0,.2.88.88,0,0,1-.23.17c-.11.08-.17.14-.17.18a4.4,4.4,0,0,0-.26,1.39,7.84,7.84,0,0,1-.21,1.51,5.91,5.91,0,0,1-.32,1c-.13.35-.28.72-.43,1.11s-.16.77-.23,1.16-.18.77-.29,1.16a.17.17,0,0,0-.12.06.14.14,0,0,0-.06.11.46.46,0,0,0-.05.38.57.57,0,0,1,0,.32c-.35,1-.7,2.16-1.05,3.45s-.64,2.55-.87,3.74a1.38,1.38,0,0,0,0,.56c0,.29,0,.47-.09.55h-.17c-.08.42-.15.84-.2,1.24s-.13.83-.21,1.25l-.32,1.13c-.09.37-.18.73-.26,1.08a11.15,11.15,0,0,0-.14,1.36A12.58,12.58,0,0,1,270,300c-.08.5-.15,1-.23,1.54a5.42,5.42,0,0,0-.06,1.36,4.68,4.68,0,0,0,0,.55.76.76,0,0,0,.38.5.63.63,0,0,1-.29.23c-.12,0-.16.16-.12.35s.1.27.29.35c-.23.35-.46.7-.69,1.07a3.41,3.41,0,0,1-.82.9q-.4,0-.75,0c-.23,0-.31-.18-.23-.49a.49.49,0,0,0-.35.52.3.3,0,0,1-.26-.12c-.06-.07-.19-.09-.38-.05s-.28.05-.26-.06a.44.44,0,0,0,0-.29.1.1,0,0,0-.14,0q-.09.06-.15,0s0-.1,0-.18a.24.24,0,0,0,0-.23.62.62,0,0,0-.12-.17l-.17-.18-.17-.26a1.35,1.35,0,0,1-.12-.43,9.35,9.35,0,0,0-.12-1.11,6.61,6.61,0,0,1-.05-1.45c0-.54,0-1.14.05-1.8a8.91,8.91,0,0,1,.29-1.8l.18-.66a1.32,1.32,0,0,1,.23-.55.49.49,0,0,1,.17-.06s.06,0,.06-.12a2.63,2.63,0,0,1,.09-1c.1-.35.2-.7.32-1.05s.21-.7.29-1.07a4.21,4.21,0,0,0,.06-1.19.29.29,0,0,0-.06-.15c0-.05-.08-.06-.12,0q.06-.18.15-.12c.06,0,.12,0,.2-.06a.61.61,0,0,0,0-.64,1.11,1.11,0,0,1-.06-.81.47.47,0,0,0-.17.49,1,1,0,0,1-.06.61s0,0-.09,0a.28.28,0,0,0-.08.15,1.19,1.19,0,0,0,0,.46.79.79,0,0,1-.09.47c-.08,0-.11-.14-.09-.29a3.71,3.71,0,0,0,0-.47c.16-1,.33-2,.52-3.19s.39-2.24.59-3.25c.11-.5.22-.94.31-1.31s.21-.78.32-1.24.15-1,.21-1.51a5.85,5.85,0,0,1,.37-1.51c.08-.2.2-.54.35-1.05s.29-.94.41-1.33.21-.66.4-1.16.37-.95.53-1.34a1.52,1.52,0,0,0,.11-.4,2.66,2.66,0,0,1,.12-.53l.12-.23c0-.08.07-.17.11-.29l.12-.23a2.24,2.24,0,0,0,.11-.29c0-.08.15-.32.32-.73s.3-.7.38-.9a1.81,1.81,0,0,1,.2-.52,2.24,2.24,0,0,0,.26-.58,2,2,0,0,1,.18-.52c.08-.16.15-.33.23-.52a.84.84,0,0,0,.09-.44,1,1,0,0,1,.14-.49.38.38,0,0,1,.21-.18.34.34,0,0,0,.2-.17c0-.08,0-.14,0-.17s0-.1,0-.18a5.7,5.7,0,0,0,.32-.58,6.9,6.9,0,0,1,.38-.69c.15-.35.3-.69.46-1a8.9,8.9,0,0,1,.52-1l.41,0a.18.18,0,0,0,.23-.2c.12,0,.17,0,.17,0v.17q.24.12.09.15l-.26,0c.08.19.25.25.52.17a2.68,2.68,0,0,1,.52-.06c.16,0,.28.22.35.64a.51.51,0,0,0,.35-.32c0-.13.18-.16.41-.09a1,1,0,0,0,.17.44A.78.78,0,0,1,278.13,266.57Zm-10.8,23.74a.71.71,0,0,0,0-.41c0-.15-.09-.13-.17.06a.71.71,0,0,0,0,.41C267.2,290.52,267.26,290.5,267.33,290.31Z" transform="translate(-155.63 -206.5)"/><path class="cls-4" d="M306.68,270.58A.61.61,0,0,0,307,270a.54.54,0,0,1,.26.61,5.86,5.86,0,0,1-.2.66q-.06.12-.12.12s-.06,0-.06.12a3.73,3.73,0,0,1-.08.49,4.82,4.82,0,0,1-.21.67s0,.05-.05.05-.06,0-.06.12a.6.6,0,0,1-.06.32,1.07,1.07,0,0,0-.12.26,3.81,3.81,0,0,0-.08.55,2,2,0,0,1-.15.61l-.17.32a1.24,1.24,0,0,0-.12.61.58.58,0,0,0,.29-.52,1.66,1.66,0,0,1,.12-.64c0-.08.07-.11.11-.09s.06,0,.06-.08a.55.55,0,0,1,.18-.41.48.48,0,0,1,.14-.2.8.8,0,0,0,.15-.21.44.44,0,0,0,.05-.37.46.46,0,0,1,.06-.38.62.62,0,0,1,.15-.2l.2-.21s.05-.06.15-.08.14-.05.14-.09a.2.2,0,0,0,0-.21.18.18,0,0,1,0-.2.42.42,0,0,1,.15-.17.54.54,0,0,0,.14-.18c.08-.19.15-.38.23-.58s.16-.38.23-.58.07-.1.09-.08,0,0,0-.15a.5.5,0,0,1,.18-.35.66.66,0,0,1,.14-.2,1,1,0,0,0,.15-.2c.07-.16.13-.29.17-.41l.17-.17a.46.46,0,0,0,0-.29.3.3,0,0,1,.09-.29,2.19,2.19,0,0,1,.23-.21,1.43,1.43,0,0,0,.23-.2.65.65,0,0,0,.15-.41.35.35,0,0,1,.32-.34s0,0,0,.14.1.11.14,0a1,1,0,0,0,.15-.29.43.43,0,0,1,.32-.29.25.25,0,0,1,.29-.29c.19,0,.25-.1.17-.29.12-.12.2-.17.26-.15l.26.09a1.62,1.62,0,0,1,.12.84c0,.25-.1.53-.17.84a1.53,1.53,0,0,1-.24.32,2.31,2.31,0,0,0-.23.32s0,.1,0,.18,0,.13,0,.17h-.17a1.06,1.06,0,0,0,0,.2.31.31,0,0,1,0,.21.18.18,0,0,0-.06.23c0,.08,0,.19-.06.35a.38.38,0,0,1-.17.08.38.38,0,0,0-.18.09,2.71,2.71,0,0,0-.11.87,4.7,4.7,0,0,1-.12,1.05s0,.05-.06.05-.06,0-.06.12,0,.14,0,.29,0,.25,0,.29a1.34,1.34,0,0,0-.2.55c-.06.29-.13.55-.2.79a1.35,1.35,0,0,0,0,.2c0,.1,0,.14,0,.14a1.61,1.61,0,0,0-.32.73c-.1.37-.19.71-.26,1-.16.59-.32,1.14-.5,1.66s-.33,1.05-.49,1.59c-.15-.11-.19-.29-.12-.55l.24-.78c0-.23.06-.46.08-.7a2.08,2.08,0,0,1,.15-.63c-.19,0-.31.06-.35.31a2,2,0,0,1-.12.5,10.8,10.8,0,0,0-.26,1.33c-.05.47-.12,1-.2,1.51-.19.89-.39,1.79-.58,2.7s-.41,1.85-.64,2.81a1.61,1.61,0,0,1-.14.38,1.5,1.5,0,0,0-.15.38,3.77,3.77,0,0,0-.14.72,5.08,5.08,0,0,1-.15.79.05.05,0,0,1-.06.06s-.06.05-.06.17,0,.18,0,.44a1.55,1.55,0,0,1-.09.49,1.26,1.26,0,0,0-.23.55q-.12.43-.24.78a1.26,1.26,0,0,0,0,.21,1.06,1.06,0,0,1,0,.2h-.17a.89.89,0,0,0-.06.55.88.88,0,0,1-.06.55c0,.08,0,.11-.08.09s-.09,0-.09.14a1.84,1.84,0,0,1,0,.24,1.1,1.1,0,0,1-.09.29c-.15.54-.29,1.12-.4,1.74s-.26,1.26-.41,1.91c-.08.43-.17.86-.26,1.31a15.32,15.32,0,0,0-.26,1.54q-.06.35-.12.66c0,.22-.08.44-.11.67q-.06.06,0,.21c0,.09,0,.14,0,.14a.35.35,0,0,0-.12.23v.35a1.06,1.06,0,0,0,0,.2.23.23,0,0,1,0,.21H303a17.24,17.24,0,0,0-.15,1.8,6.49,6.49,0,0,1-.32,1.8.54.54,0,0,1-.41.2,5.49,5.49,0,0,1-.58,0,2.41,2.41,0,0,1-.87.52,2.14,2.14,0,0,1-1.1-.06,4.17,4.17,0,0,1-.49-.72c-.14-.25-.28-.5-.44-.73s-.08-.1-.11-.06-.06,0-.06-.11a2.43,2.43,0,0,0-.41-.93s-.07-.05-.08,0-.05,0-.09-.15a.43.43,0,0,0-.18-.32.47.47,0,0,1-.17-.37.66.66,0,0,0-.2-.35.66.66,0,0,1-.21-.41,1,1,0,0,0-.11-.4,4.43,4.43,0,0,1-.23-.53.88.88,0,0,1-.15-.4.45.45,0,0,0-.26-.35.94.94,0,0,1,.81-.41c0-.11-.09-.19-.26-.23s-.09-.08.26-.11a2.93,2.93,0,0,0-.4-1.08,6.27,6.27,0,0,1-.53-1,.32.32,0,0,0-.29-.08c-.11,0-.25-.07-.4-.26-.55-1.17-1.11-2.31-1.69-3.43s-1.14-2.3-1.68-3.54a.42.42,0,0,1-.12-.32.91.91,0,0,0-.11-.43l-.18-.15a.65.65,0,0,1-.17-.2,3.7,3.7,0,0,1-.2-.64,5.34,5.34,0,0,0-.21-.64,2.85,2.85,0,0,0-.29-.64,3.65,3.65,0,0,1-.29-.63l-.2-.44a1.91,1.91,0,0,1-.14-.49.9.9,0,0,1-.12-.38.9.9,0,0,0-.12-.38,1,1,0,0,1-.08-.23c0-.08-.05-.17-.09-.29s-.17-.39-.29-.7-.21-.58-.29-.81q-.46-1.27-.84-2.64c-.25-.91-.52-1.81-.79-2.7a1.09,1.09,0,0,0-.43.87,9,9,0,0,1-.15,1.22s0,.06-.08.06-.09,0-.09.11a1.42,1.42,0,0,1-.06.53,1.16,1.16,0,0,0-.06.46,2.07,2.07,0,0,1,0,.35c0,.12,0,.25-.08.41l-.12.11-.06.06a2.36,2.36,0,0,0,0,.75,1.73,1.73,0,0,1-.05.76s0,.07-.09.09a.13.13,0,0,0-.09.14v.18a.94.94,0,0,0-.06.31,2.34,2.34,0,0,1-.06.44,4.31,4.31,0,0,1-.11.75.73.73,0,0,0-.06.32,1.78,1.78,0,0,1-.06.44.7.7,0,0,0-.06.32,2.27,2.27,0,0,1,0,.43.73.73,0,0,0-.06.32,1.78,1.78,0,0,1-.06.44.29.29,0,0,1-.12.14.11.11,0,0,0-.05.09,1.86,1.86,0,0,0-.06.81,1.32,1.32,0,0,1-.06.7s0,0-.09-.12a.61.61,0,0,1-.08-.29s0,.07-.09.09a.13.13,0,0,0-.09.14,1.7,1.7,0,0,0,.2.29c.1.12.11.33,0,.64a.3.3,0,0,1-.14-.23,2,2,0,0,1,0-.35c-.27.16-.31.35-.12.58a.78.78,0,0,1,.18.76.3.3,0,0,1-.15-.23,2.16,2.16,0,0,1,0-.35,1.43,1.43,0,0,0-.17.46c0,.2-.08.37-.12.52-.07.35-.13.69-.17,1a6.89,6.89,0,0,1-.23,1.07.82.82,0,0,0,0,.18.16.16,0,0,1,0,.17h-.12s0,.11,0,.2,0,.17,0,.21h-.17a4.76,4.76,0,0,0-.09,1.25,6,6,0,0,1-.09,1.36s0,.07-.08.09a.13.13,0,0,0-.09.14,6.36,6.36,0,0,0-.2,1c-.06.39-.13.75-.21,1.1a.46.46,0,0,1-.2-.32.91.91,0,0,1,0-.4c0-.14.07-.27.09-.38a.19.19,0,0,0-.15-.23.75.75,0,0,0-.26.49c-.06.25-.11.47-.15.67,0,0,0,.1,0,.2s0,.16,0,.2h-.17a1.37,1.37,0,0,0-.06.44,1.93,1.93,0,0,1-.06.49,1.06,1.06,0,0,0,0,.2,1.26,1.26,0,0,1,0,.21h-.17s0,.09,0,.17,0,.14,0,.18a.31.31,0,0,0-.12.23v.35a1.19,1.19,0,0,0,0,.2c0,.1,0,.16,0,.2s-.13.12-.06.12.1.08.06.23a.05.05,0,0,1-.06.06s-.05,0-.05.11c0,.28,0,.55,0,.82s0,.56,0,.87a.75.75,0,0,1-.05.35.32.32,0,0,0-.06.23s0,0,.09,0a.21.21,0,0,1,.08.17s0,.07-.08.09a.13.13,0,0,0-.09.14s0,0,.11,0a.12.12,0,0,1,.06.18l-.06.06a.18.18,0,0,0-.05.11,2.07,2.07,0,0,0,0,.61.65.65,0,0,0,.26.5.78.78,0,0,1,.09.49c0,.21,0,.36.08.43h.18a3.89,3.89,0,0,1,.11.85.91.91,0,0,0,.29.66c-.08.23-.21.25-.4.06l-.41-.41a1.81,1.81,0,0,1-.75-.69.2.2,0,0,0-.12.2.2.2,0,0,1-.17.2c0-.11-.08-.16-.12-.14s-.06.07-.06.14a.53.53,0,0,1-.35-.58,6.08,6.08,0,0,1-1.22-1.21l-.26-1.43a7.91,7.91,0,0,1-.08-1.77v-1.85a18.6,18.6,0,0,1,.11-2.09.53.53,0,0,1,.06-.24.74.74,0,0,0,.06-.34v-.79a7,7,0,0,1,.06-.9,3.86,3.86,0,0,0,0-.61,2.26,2.26,0,0,1,.06-.55s0-.06.09-.06.09,0,.09-.11c0-.27,0-.42.14-.44s.15-.12.15-.32v-.23a11.91,11.91,0,0,0,.2-1.42,10.47,10.47,0,0,1,.26-1.6s0-.1,0-.2,0-.14,0-.14h.18a1,1,0,0,0,0-.24.17.17,0,0,1,0-.17h.17a.58.58,0,0,0-.06-.2q-.06-.15,0-.21h.18a1.23,1.23,0,0,0,.05-.64,1.11,1.11,0,0,1,.06-.63,1,1,0,0,0-.38-.32c-.17-.1-.22,0-.14.32a.77.77,0,0,1-.2-.73c.05-.29.1-.55.14-.78l.12-.79c0-.25.07-.49.11-.72a3.89,3.89,0,0,0,0-.84,3.89,3.89,0,0,1,0-.84s0-.07.09-.09a.14.14,0,0,0,.09-.15v-.58a2.93,2.93,0,0,1,.11-.69.1.1,0,0,1,.06-.09s.06-.07.06-.15v-.6a3.58,3.58,0,0,1,.11-.73h.06c.08,0,.12-.06.12-.17v-.18a1,1,0,0,0,.06-.35,2.17,2.17,0,0,1,.05-.4c.2-.82.41-1.78.64-2.9s.47-2.13.7-3c.08-.31.17-.7.29-1.16a2,2,0,0,0,.12-.35,4.27,4.27,0,0,1,.17-.58.93.93,0,0,1,.12-.41,2.23,2.23,0,0,0,.2-.69c.06-.35.12-.68.2-1q.06-.12.12-.09s.06,0,.06-.14a.26.26,0,0,1,.05-.15.34.34,0,0,0,.06-.2,5.77,5.77,0,0,0,.23-.67c.08-.25.16-.47.24-.67s.15-.59.23-.95a.71.71,0,0,1,.69-.61c.2-.2.27-.24.24-.15s0,.2.23.32.13.05.17,0,0,0,0,.15a1.4,1.4,0,0,0,.44-.38c.13-.18.32-.15.55.08s.17.17.17.15v-.12a.2.2,0,0,1,.06-.14.46.46,0,0,1,.29-.06c.08.16.08.27,0,.35a.31.31,0,0,0-.11.23.88.88,0,0,0-.18.47.57.57,0,0,1-.29.46q.12-.06,0-.12a.58.58,0,0,0-.17-.05.14.14,0,0,0-.06.11l-.12.12c0,.11.14.15.29.11s.24,0,.24.24.13.21.17.05a.46.46,0,0,1,.17-.29c.08,0,.14,0,.18.09s.09.13.17.09.09-.07.15-.21a3.73,3.73,0,0,1,.2-.4.75.75,0,0,1,.26-.29c.1-.06.2,0,.32.09a2.3,2.3,0,0,1,.29,1v1.05a2,2,0,0,0,.26.87c.14.19.3.4.5.64q-.06.46-.09.81a2.36,2.36,0,0,0,.14.87.17.17,0,0,0,.12.06s.06,0,.06.11a.24.24,0,0,0,.06.18c.07.19.18.52.31,1a3.83,3.83,0,0,0,.44,1.05l.17.17c.08.2.15.38.21.55a5.47,5.47,0,0,0,.2.56.92.92,0,0,1,.09.23c0,.07.05.19.08.35s.13.3.27.66.24.69.31,1c.31,1,.68,2.1,1.11,3.28s.79,2.31,1.1,3.39q.22.06.09.21c-.1.09-.07.14.08.14-.07.2-.15.25-.23.18a1,1,0,0,1-.2-.38,5.08,5.08,0,0,1-.15-.52,1.82,1.82,0,0,0-.11-.38s-.07-.06-.09-.06-.05,0-.09-.11a.66.66,0,0,1-.11-.29.35.35,0,0,0-.12-.24q-.29.12-.06.24c.16.07.14.19-.05.34.69,2,1.42,4,2.17,5.89s1.52,3.83,2.29,5.72a2.66,2.66,0,0,0,.38-1c.06-.39.13-.74.2-1v-.49a.69.69,0,0,1,.12-.49A2.46,2.46,0,0,0,299,292a10.49,10.49,0,0,0,.23-1.1,9.48,9.48,0,0,1,.29-1.34q.12-.35.21-.69c.05-.23.12-.5.2-.81a1.26,1.26,0,0,0,0-.21c0-.09,0-.14,0-.14a.71.71,0,0,0,.12-.41c.07-.23.13-.42.17-.58a.67.67,0,0,1,.09-.29l.2-.46a1.26,1.26,0,0,0,0-.21,1.06,1.06,0,0,1,0-.2.65.65,0,0,0,.15-.41,3.82,3.82,0,0,1,.14-.69.76.76,0,0,1,.18-.23c.07-.08.11-.14.11-.18a.36.36,0,0,0,0-.29.36.36,0,0,1,0-.29s.05-.1.15-.17a.34.34,0,0,0,.14-.23.32.32,0,0,0,0-.27.3.3,0,0,1,0-.26.33.33,0,0,1,.15-.23c.09-.08.14-.13.14-.17a.89.89,0,0,0,.06-.53,1.27,1.27,0,0,1,.06-.63s0-.06.09-.06.08,0,.08-.12a2.26,2.26,0,0,1,.18-.64c.11-.31.19-.54.23-.69a.66.66,0,0,0,0-.21.12.12,0,0,1,0-.14.31.31,0,0,1,.14-.23q.15-.12.15-.18a1.07,1.07,0,0,0,0-.49c0-.25,0-.42.09-.49a2.35,2.35,0,0,0,.37-.82c.14-.42.26-.79.38-1.1a1.35,1.35,0,0,0,.14-.46,1.43,1.43,0,0,1,.15-.47.24.24,0,0,1,.12-.2.79.79,0,0,0,.17-.2s0-.1,0-.18,0-.13,0-.17a3.45,3.45,0,0,0,.17-.41l.24-.58a2.58,2.58,0,0,0,.17-.49,4.36,4.36,0,0,1,.12-.44.52.52,0,0,1,.17-.2.52.52,0,0,0,.17-.2.61.61,0,0,0,0-.32.26.26,0,0,1,.09-.26.68.68,0,0,1,.17-.21.24.24,0,0,0,.12-.2s0-.1,0-.17,0-.14,0-.18a3.08,3.08,0,0,0,.38-.84c.13-.41.26-.76.38-1.07.19-.66.38-1.29.58-1.89a14.72,14.72,0,0,1,.69-1.77c.27,0,.44,0,.5-.15s.18-.1.37.09q.06.18.15.18a.24.24,0,0,0,.17-.09.8.8,0,0,1,.21-.15.47.47,0,0,1,.29,0,.76.76,0,0,1-.18.93,2.93,2.93,0,0,0-.58.64.31.31,0,0,0-.09.29.45.45,0,0,1,0,.29c0,.08-.07.11-.11.09s-.06,0-.06.09a.42.42,0,0,1-.14.34.5.5,0,0,0-.15.41c0,.15,0,.21-.12.17a.2.2,0,0,0-.23.06s0,.1,0,.18.07.13,0,.17a.28.28,0,0,1-.17.15.38.38,0,0,0-.18.08.72.72,0,0,0-.06.5.56.56,0,0,1-.05.43.45.45,0,0,1-.24.2c-.11.06-.13.19-.05.38a1.17,1.17,0,0,1-.12.2A.37.37,0,0,0,306.68,270.58Zm-25.07,14.91c0-.19.1-.5.17-.93a2.09,2.09,0,0,0,.06-.81c0-.08,0-.11-.06-.11s-.07,0-.11.11a3.47,3.47,0,0,1-.18,1Q281.33,285.33,281.61,285.49Zm1.86-8.76a9.39,9.39,0,0,0-.29,1.19c-.08.41-.16.76-.24,1.07-.07,0-.11,0-.11.09s0,.09.11.09a.14.14,0,0,1,0-.18.19.19,0,0,0,.09-.17q0-.18.09-.15c.06,0,.09,0,.09-.08a.58.58,0,0,0,.05-.44.69.69,0,0,1,.06-.49.8.8,0,0,1,.15-.21.78.78,0,0,0,.14-.2.38.38,0,0,0,.12-.29.65.65,0,0,1,.06-.29s.06-.05.08,0,.05,0,.09-.14c0-.31.09-.48.14-.5s.09-.16.09-.43c-.31-.08-.49,0-.55.32S283.54,276.46,283.47,276.73Zm6-.93a.1.1,0,0,0,.06.09.35.35,0,0,1,.12.14,1,1,0,0,1,.06.29.33.33,0,0,0,.11.23,2,2,0,0,1,.35.73,1.56,1.56,0,0,0,.23.55c.12.2.23.39.32.58s.19.37.26.52a.6.6,0,0,0,.06.29c0,.08.08,0,.12-.11s-.15-.46-.21-.67a.86.86,0,0,0-.2-.43l-.17-.53a.63.63,0,0,0-.23-.4v-.35a1.21,1.21,0,0,0-.35-.58s-.05,0,0-.15a1.06,1.06,0,0,0,0-.2,1.39,1.39,0,0,0-.41-.52.46.46,0,0,1-.09-.23c0-.12,0-.22-.05-.29a.22.22,0,0,0-.09-.15s-.08.07-.12.26c.2.12.26.25.21.41A.72.72,0,0,0,289.44,275.8ZM305.35,280a.86.86,0,0,1,.23-.53c.15-.19.12-.32-.12-.4a1.46,1.46,0,0,1-.43,1.07,1.24,1.24,0,0,0-.44.84q0,.18-.06.15s-.07,0-.11,0a1,1,0,0,0,0,.43.44.44,0,0,1-.09.38l-.17,0a.18.18,0,0,0-.18,0,.34.34,0,0,0,0,.17.42.42,0,0,1,0,.18.35.35,0,0,1-.11.14.1.1,0,0,0-.06.09,1.62,1.62,0,0,0-.06.38,1.69,1.69,0,0,1-.06.38c-.08.19-.15.4-.23.63s-.16.47-.23.7a2.06,2.06,0,0,0-.15.55,1.6,1.6,0,0,1-.08.38v.23q0,.12-.09.12t-.09.06a4.33,4.33,0,0,0-.2.66,2.77,2.77,0,0,0-.09.5c0,.07,0,.11-.06.11s-.05,0-.05.06a.62.62,0,0,0,0,.38.77.77,0,0,1,0,.37s0,.1-.12.18a.9.9,0,0,0-.18.23,1.19,1.19,0,0,0-.08.49,1.19,1.19,0,0,1,0,.44,1.32,1.32,0,0,1-.15.43,3.09,3.09,0,0,0-.14.32c-.08.27-.17.54-.26.79a1.68,1.68,0,0,0-.15.55,3.07,3.07,0,0,0-.08.35,1.36,1.36,0,0,1-.09.23,2.36,2.36,0,0,0-.06.43,1,1,0,0,1-.06.32.39.39,0,0,0,0,.26c0,.1,0,.15-.08.15-.08-.23-.16-.35-.24-.35a.62.62,0,0,0,.18.52c.15.2.11.33-.12.41,0-.19,0-.32-.09-.38s-.18,0-.26.21c.12.07.15.21.09.4s-.12.41-.17.64a2.59,2.59,0,0,0-.09.64.33.33,0,0,0,.29.35,2,2,0,0,1,.29-1.34A4.48,4.48,0,0,1,301,296a11.3,11.3,0,0,1-.17,1.42,1.67,1.67,0,0,0-.09.7,2.15,2.15,0,0,1,0,.63c-.07.32-.15.66-.23,1a.89.89,0,0,0,.18.87,4.66,4.66,0,0,1,.26-1.57,4.2,4.2,0,0,0,.26-1.33q0-.12.06-.12s0,0,0-.06a4,4,0,0,0,.15-.87,3.58,3.58,0,0,1,.14-.81s0,0,0-.09a.21.21,0,0,0,.09-.14,2.31,2.31,0,0,0,.26-.84,1.63,1.63,0,0,1,.2-.67,1.66,1.66,0,0,0,.12-.64,2.09,2.09,0,0,1,.12-.69.05.05,0,0,1,.06-.06s.07,0,.11-.12v-.23q0-.12.06-.12s.06,0,.06,0a1.08,1.08,0,0,0,.08-.5,1.07,1.07,0,0,1,0-.43.1.1,0,0,1,.06-.09.32.32,0,0,0,.12-.15v-.17q0-.12.06-.12a0,0,0,0,0,.05,0,4.81,4.81,0,0,0,.18-.7,2.16,2.16,0,0,1,.11-.47,1.73,1.73,0,0,0,.24-.66,5.89,5.89,0,0,0,.05-.67.19.19,0,0,1,.18.12c0,.07.08,0,.11-.12s-.17-.17-.17-.41c.27.08.36.06.26-.05s-.12-.22-.09-.29.05-.07.15-.09.14-.07.14-.15,0-.13-.08-.17-.13-.1-.09-.17.06,0,.17,0,.18,0,.18,0a.66.66,0,0,0,0-.21.6.6,0,0,1,0-.2,3.22,3.22,0,0,1,.15-.52c.05-.16.1-.29.14-.41s.07-.21.09-.29.05-.17.08-.29a.7.7,0,0,0,0-.35.64.64,0,0,1,.09-.4.25.25,0,0,1,.15-.21c.09-.06.14-.12.14-.2a.71.71,0,0,0,.12-.41v-.34c0-.12.06-.21.08-.27a3.28,3.28,0,0,0,.09-.32.66.66,0,0,0,0-.34.67.67,0,0,1,.09-.41s0-.1.14-.17a.33.33,0,0,0,.15-.24.75.75,0,0,0,.11-.4v-.35a6.41,6.41,0,0,0,.26-.78c.06-.22.13-.46.21-.73a3.42,3.42,0,0,1,.29-1,4.85,4.85,0,0,0,.2-.61,1.46,1.46,0,0,0,0-.66q.29-.12,0-.24a5.44,5.44,0,0,0-.73,1.86A2.58,2.58,0,0,1,305.35,280Zm3.89-5.86a2.2,2.2,0,0,0,.05-.38,1.62,1.62,0,0,1,.06-.38,5.49,5.49,0,0,0,.35-.78c.15-.41.13-.65-.06-.73a4.43,4.43,0,0,0-.23.61,7.27,7.27,0,0,0-.2.73,2.43,2.43,0,0,0-.09.61C309.12,274,309.16,274.14,309.24,274.18Z" transform="translate(-155.63 -206.5)"/></svg>